# xmcd
#
# Track frame offsets: 
#        150
#        11366
#        25497
#        42677
#        64188
#        80576
#        96313
#        113725
#        130455
#        143582
#        159690
#
# Disc length: 2433 seconds
#
# Revision: 1
# Processed by: cddbd v1.5.2PL0 Copyright (c) Steve Scherf et al.
# Submitted via: ExactAudioCopy v1.0b3
#
DISCID=97097f0b
DTITLE=Darrell Nulisch - Goin´ Back To Dallas
DYEAR=2007
DGENRE=Blues
TTITLE0=She´s My Baby
TTITLE1=Too Much
TTITLE2=Feel Like Ramblin´
TTITLE3=Blue Monday
TTITLE4=Too Young To Die
TTITLE5=Play It Cool
TTITLE6=Straight´n Up
TTITLE7=Come On In This House
TTITLE8=Shame, Shame, Shame
TTITLE9=That´s A Problem
TTITLE10=Goin´ Back To Dallas
EXTD=
EXTT0=
EXTT1=
EXTT2=
EXTT3=
EXTT4=
EXTT5=
EXTT6=
EXTT7=
EXTT8=
EXTT9=
EXTT10=
PLAYORDER=
